<svg width="1886" height="970" viewBox="0 0 1886 970" fill="none" xmlns="http://www.w3.org/2000/svg">
<path opacity="0.4" d="M987.127 836.69C1244.27 836.69 1452.72 754.351 1452.72 652.78C1452.72 551.209 1244.27 468.87 987.127 468.87C729.987 468.87 521.533 551.209 521.533 652.78C521.533 754.351 729.987 836.69 987.127 836.69Z" fill="#0F054C"/>
<path d="M987.127 762.88C1244.27 762.88 1452.72 680.541 1452.72 578.97C1452.72 477.399 1244.27 395.06 987.127 395.06C729.987 395.06 521.533 477.399 521.533 578.97C521.533 680.541 729.987 762.88 987.127 762.88Z" fill="url(#paint0_linear_478_8536)"/>
<path opacity="0.48" d="M1452.72 518.414H1441.26C1422.52 485.636 1380.91 454.517 1316.34 429.002C1134.54 357.175 839.72 357.175 658.044 429.002C597.096 453.095 556.622 482.188 536.527 512.94H521.912V553.713C518.29 602.568 563.646 651.896 658.075 689.2C839.909 761.027 1134.69 761.027 1316.53 689.2C1407.24 653.211 1452.72 606.059 1452.72 558.993V518.414Z" fill="url(#paint1_linear_478_8536)"/>
<path opacity="0.48" d="M1452.72 518.414H1441.26C1422.52 485.636 1380.91 454.517 1316.34 429.002C1134.54 357.175 839.72 357.175 658.044 429.002C597.096 453.095 556.622 482.188 536.527 512.94H521.912V553.713C518.29 602.568 563.646 651.896 658.075 689.2C839.909 761.027 1134.69 761.027 1316.53 689.2C1407.24 653.211 1452.72 606.059 1452.72 558.993V518.414Z" fill="url(#paint2_linear_478_8536)"/>
<path opacity="0.48" d="M1452.72 518.414H1441.26C1422.52 485.636 1380.91 454.517 1316.34 429.002C1134.54 357.175 839.72 357.175 658.044 429.002C597.096 453.095 556.622 482.188 536.527 512.94H521.912V553.713C518.29 602.568 563.646 651.896 658.075 689.2C839.909 761.027 1134.69 761.027 1316.53 689.2C1407.24 653.211 1452.72 606.059 1452.72 558.993V518.414Z" fill="url(#paint3_linear_478_8536)"/>
<path d="M1452.72 502.639H1441.26C1422.52 469.883 1380.91 438.743 1316.34 413.249C1134.54 341.422 839.72 341.422 658.044 413.249C597.096 437.32 556.622 466.435 536.527 497.166H521.912V537.96C518.29 586.815 563.646 636.143 658.075 673.425C839.909 745.252 1134.69 745.252 1316.53 673.425C1407.43 637.523 1452.88 590.457 1452.88 543.391L1452.72 502.639Z" fill="url(#paint4_linear_478_8536)"/>
<path opacity="0.48" d="M1441.26 502.575C1440.6 501.432 1439.9 500.42 1439.18 499.17V472.383H1414.8V470.465C1408.4 464.621 1401.46 459.057 1394.04 453.806V472.383H1380.06V444.518C1373.57 440.481 1366.64 436.537 1359.27 432.687V472.383H1345.35V425.769C1338.7 422.623 1331.74 419.52 1324.47 416.503V472.383H1310.61V410.964C1303.76 408.349 1296.79 405.835 1289.69 403.422V472.383H1275.9V398.918C1269 396.763 1262.01 394.608 1254.89 392.711V472.447H1241.16V407.883H1220.08V472.383H1206.44V425.575H1185.31V472.383H1171.7V443.29H1150.51V472.383H1136.99V461.004H1115.73V472.383H858.745V461.004H837.485V472.383H823.941V443.29H802.743V472.383H789.168V425.575H768.033V472.383H754.363V407.883H733.197V472.383H719.464V392.646C712.377 394.629 705.353 396.698 698.487 398.831V472.339H684.691V403.379C677.573 405.792 670.58 408.314 663.745 410.9V472.404H649.886V416.373C642.642 419.39 635.692 422.472 629.035 425.618V472.339H615.113V432.579C607.711 436.437 600.813 440.402 594.293 444.432V472.447H580.309V453.655C572.892 458.887 565.97 464.437 559.583 470.271V472.426H535.173V497.144H524.842V565.523C528.851 578.291 535.827 590.536 545.504 601.792V558.993H559.583V616.209C565.978 622.031 572.9 627.574 580.309 632.803V558.993H594.293V642.07C600.803 646.078 607.743 650.014 615.113 653.879V559.058H629.256V660.861C635.902 664.029 642.831 667.111 650.107 670.128V558.993H663.903V675.559C670.748 678.159 677.73 680.673 684.848 683.101V558.993H698.55V687.562C705.416 689.717 712.44 691.872 719.527 693.769V558.993H733.197V697.454C740.126 699.221 747.15 700.923 754.269 702.561V558.993H767.939V705.535C774.889 706.972 781.934 708.365 789.073 709.716V558.864H802.649V712.022C809.683 713.229 816.749 714.349 823.846 715.384V558.993H837.39V717.409C844.404 718.358 851.491 719.234 858.651 720.039V558.993H872.1V721.482C879.187 722.194 886.306 722.819 893.424 723.4V558.993H906.842V724.327C913.96 724.801 921.089 725.225 928.229 725.598V558.993H941.552V726.267C948.691 726.539 955.841 726.748 963.002 726.892V558.993H976.294V727.085C983.517 727.085 990.751 727.085 997.995 727.085V558.993H1011.26V726.892C1018.41 726.741 1025.56 726.547 1032.71 726.267V558.993H1046.03V725.663C1053.17 725.318 1060.31 724.895 1067.45 724.392V558.993H1080.83V723.379C1087.98 722.818 1095.07 722.172 1102.16 721.461V558.993H1115.64V720.017C1122.76 719.212 1129.84 718.336 1136.9 717.388V558.993H1150.41V715.491C1157.53 714.457 1164.62 713.336 1171.61 712.13V558.993H1185.22V709.716C1192.33 708.38 1199.36 706.979 1206.35 705.406V558.864H1219.99V702.389C1227.11 700.751 1234.13 699.049 1241.06 697.281V558.993H1254.79V693.726C1261.91 691.743 1268.91 689.674 1275.8 687.519V558.993H1289.6V683.037C1296.72 680.623 1303.69 678.109 1310.51 675.494V558.993H1324.37V669.999C1331.65 666.982 1338.58 663.878 1345.25 660.732V558.993H1359.18V653.814C1366.55 649.935 1373.48 645.985 1379.96 641.962V558.993H1393.95V632.717C1401.38 627.47 1408.31 621.906 1414.71 616.058V558.993H1428.75V601.49C1438.49 590.123 1445.47 577.751 1449.42 564.855V502.639L1441.26 502.575Z" fill="url(#paint5_linear_478_8536)"/>
<path d="M987.127 686.549C1244.27 686.549 1452.72 604.21 1452.72 502.639C1452.72 401.068 1244.27 318.729 987.127 318.729C729.987 318.729 521.533 401.068 521.533 502.639C521.533 604.21 729.987 686.549 987.127 686.549Z" fill="url(#paint6_linear_478_8536)"/>
<path opacity="0.3" d="M987.286 318.729C881.801 318.729 776.254 332.801 690.392 360.946L551.488 567.527C574.135 591.232 609.506 613.58 657.918 632.695C689.134 644.852 722.083 654.795 756.253 662.37L987.286 318.729Z" fill="#42E8E0"/>
<path opacity="0.3" d="M1117.75 326.099L878.777 681.528C936.519 686.903 994.942 687.972 1053.02 684.717L1273 357.519C1223.41 342.579 1171.24 332.021 1117.75 326.099V326.099Z" fill="#42E8E0"/>
<g opacity="0.05">
<path d="M987.127 665.516C1214.85 665.516 1399.46 592.593 1399.46 502.639C1399.46 412.684 1214.85 339.762 987.127 339.762C759.402 339.762 574.795 412.684 574.795 502.639C574.795 592.593 759.402 665.516 987.127 665.516Z" fill="url(#paint7_linear_478_8536)"/>
<path d="M250.593 501.949L246.184 500.204L964.513 216.451L968.922 218.197L250.593 501.949Z" fill="#42E8E0"/>
<path d="M263.255 506.949L258.846 505.203L977.175 221.451L981.585 223.196L263.255 506.949Z" fill="#42E8E0"/>
<path d="M275.917 511.949L271.508 510.203L989.837 226.451L994.215 228.196L275.917 511.949Z" fill="#42E8E0"/>
<path d="M288.548 516.948L284.17 515.203L1002.5 231.45L1006.88 233.196L288.548 516.948Z" fill="#42E8E0"/>
<path d="M301.21 521.948L296.801 520.202L1015.13 236.45L1019.54 238.195L301.21 521.948Z" fill="#42E8E0"/>
<path d="M313.871 526.948L309.461 525.202L1027.79 241.45L1032.2 243.195L313.871 526.948Z" fill="#42E8E0"/>
<path d="M326.533 531.947L322.123 530.202L1040.45 246.449L1044.86 248.195L326.533 531.947Z" fill="#42E8E0"/>
<path d="M339.195 536.947L334.785 535.201L1053.11 251.449L1057.49 253.194L339.195 536.947Z" fill="#42E8E0"/>
<path d="M351.825 541.947L347.447 540.201L1065.74 256.449L1070.15 258.194L351.825 541.947Z" fill="#42E8E0"/>
<path d="M364.488 546.925L360.078 545.201L1078.41 261.448L1082.82 263.194L364.488 546.925Z" fill="#42E8E0"/>
<path d="M377.15 551.946L372.74 550.2L1091.07 266.448L1095.48 268.193L377.15 551.946Z" fill="#42E8E0"/>
<path d="M389.812 556.946L385.402 555.2L1103.73 271.447L1108.14 273.193L389.812 556.946Z" fill="#42E8E0"/>
<path d="M402.474 561.924L398.064 560.2L1116.39 276.447L1120.77 278.193L402.474 561.924Z" fill="#42E8E0"/>
<path d="M415.105 566.923L410.727 565.199L1129.06 281.447L1133.43 283.192L415.105 566.923Z" fill="#42E8E0"/>
<path d="M427.765 571.923L423.355 570.199L1141.68 286.446L1146.09 288.17L427.765 571.923Z" fill="#42E8E0"/>
<path d="M440.427 576.923L436.018 575.199L1154.35 291.446L1158.76 293.17L440.427 576.923Z" fill="#42E8E0"/>
<path d="M453.089 581.922L448.68 580.198L1167.01 296.446L1171.42 298.17L453.089 581.922Z" fill="#42E8E0"/>
<path d="M465.751 586.922L461.342 585.198L1179.67 301.445L1184.05 303.169L465.751 586.922Z" fill="#42E8E0"/>
<path d="M478.382 591.922L474.004 590.198L1192.3 306.445L1196.71 308.169L478.382 591.922Z" fill="#42E8E0"/>
<path d="M491.044 596.921L486.635 595.197L1204.96 311.445L1209.37 313.169L491.044 596.921Z" fill="#42E8E0"/>
<path d="M503.707 601.921L499.297 600.197L1217.63 316.444L1222.04 318.168L503.707 601.921Z" fill="#42E8E0"/>
<path d="M516.369 606.921L511.959 605.197L1230.29 321.444L1234.7 323.168L516.369 606.921Z" fill="#42E8E0"/>
<path d="M529.031 611.921L524.621 610.196L1242.95 326.444L1247.33 328.168L529.031 611.921Z" fill="#42E8E0"/>
<path d="M541.661 616.92L537.283 615.196L1255.58 331.443L1259.99 333.167L541.661 616.92Z" fill="#42E8E0"/>
<path d="M554.322 621.92L549.912 620.196L1268.24 336.443L1272.65 338.167L554.322 621.92Z" fill="#42E8E0"/>
<path d="M566.984 626.92L562.574 625.195L1280.9 341.443L1285.31 343.167L566.984 626.92Z" fill="#42E8E0"/>
<path d="M579.646 631.919L575.236 630.195L1293.57 346.421L1297.98 348.166L579.646 631.919Z" fill="#42E8E0"/>
<path d="M592.308 636.919L587.898 635.195L1306.23 351.42L1310.61 353.166L592.308 636.919Z" fill="#42E8E0"/>
<path d="M604.939 641.919L600.561 640.173L1318.89 356.442L1323.27 358.166L604.939 641.919Z" fill="#42E8E0"/>
<path d="M617.601 646.918L613.191 645.173L1331.52 361.441L1335.93 363.165L617.601 646.918Z" fill="#42E8E0"/>
<path d="M630.263 651.918L625.854 650.172L1344.18 366.419L1348.59 368.165L630.263 651.918Z" fill="#42E8E0"/>
<path d="M642.925 656.918L638.516 655.172L1356.84 371.419L1361.25 373.165L642.925 656.918Z" fill="#42E8E0"/>
<path d="M655.587 661.917L651.178 660.172L1369.51 376.419L1373.89 378.165L655.587 661.917Z" fill="#42E8E0"/>
<path d="M668.216 666.917L663.838 665.171L1382.14 381.418L1386.55 383.164L668.216 666.917Z" fill="#42E8E0"/>
<path d="M680.878 671.917L676.469 670.171L1394.8 386.418L1399.21 388.164L680.878 671.917Z" fill="#42E8E0"/>
<path d="M693.541 676.916L689.131 675.171L1407.46 391.418L1411.87 393.164L693.541 676.916Z" fill="#42E8E0"/>
<path d="M706.203 681.916L701.793 680.17L1420.12 396.417L1424.53 398.163L706.203 681.916Z" fill="#42E8E0"/>
<path d="M718.865 686.916L714.455 685.17L1432.78 401.417L1437.16 403.163L718.865 686.916Z" fill="#42E8E0"/>
<path d="M731.495 691.915L727.117 690.17L1445.45 406.417L1449.82 408.163L731.495 691.915Z" fill="#42E8E0"/>
<path d="M744.158 696.915L739.748 695.169L1458.08 411.417L1462.49 413.162L744.158 696.915Z" fill="#42E8E0"/>
<path d="M756.82 701.915L752.41 700.169L1470.74 416.417L1475.15 418.162L756.82 701.915Z" fill="#42E8E0"/>
<path d="M769.48 706.914L765.07 705.169L1483.4 421.416L1487.81 423.162L769.48 706.914Z" fill="#42E8E0"/>
<path d="M782.142 711.914L777.732 710.168L1496.06 426.416L1500.44 428.161L782.142 711.914Z" fill="#42E8E0"/>
<path d="M794.773 716.914L790.395 715.168L1508.69 431.416L1513.1 433.161L794.773 716.914Z" fill="#42E8E0"/>
<path d="M807.435 721.913L803.025 720.168L1521.35 436.415L1525.76 438.161L807.435 721.913Z" fill="#42E8E0"/>
<path d="M820.097 726.913L815.688 725.167L1534.02 441.415L1538.43 443.16L820.097 726.913Z" fill="#42E8E0"/>
<path d="M832.759 731.912L828.35 730.167L1546.68 446.414L1551.09 448.16L832.759 731.912Z" fill="#42E8E0"/>
<path d="M845.421 736.912L841.012 735.167L1559.34 451.414L1563.72 453.16L845.421 736.912Z" fill="#42E8E0"/>
<path d="M858.052 741.912L853.674 740.166L1572 456.414L1576.38 458.159L858.052 741.912Z" fill="#42E8E0"/>
<path d="M870.714 746.911L866.305 745.166L1584.63 461.413L1589.04 463.159L870.714 746.911Z" fill="#42E8E0"/>
<path d="M883.375 751.911L878.965 750.166L1597.29 466.413L1601.7 468.159L883.375 751.911Z" fill="#42E8E0"/>
<path d="M896.037 756.911L891.627 755.165L1609.96 471.413L1614.37 473.158L896.037 756.911Z" fill="#42E8E0"/>
<path d="M908.699 761.91L904.289 760.165L1622.62 476.412L1627 478.158L908.699 761.91Z" fill="#42E8E0"/>
<path d="M921.329 766.91L916.951 765.165L1635.28 481.412L1639.66 483.158L921.329 766.91Z" fill="#42E8E0"/>
<path d="M933.992 771.91L929.582 770.164L1647.91 486.412L1652.32 488.157L933.992 771.91Z" fill="#42E8E0"/>
<path d="M946.654 776.909L942.244 775.164L1660.57 491.411L1664.98 493.157L946.654 776.909Z" fill="#42E8E0"/>
<path d="M959.316 781.888L954.906 780.164L1673.24 496.411L1677.65 498.157L959.316 781.888Z" fill="#42E8E0"/>
<path d="M971.978 786.887L967.568 785.163L1685.9 501.411L1690.28 503.156L971.978 786.887Z" fill="#42E8E0"/>
<path d="M984.609 791.887L980.23 790.163L1698.53 506.41L1702.94 508.134L984.609 791.887Z" fill="#42E8E0"/>
<path d="M997.269 796.908L992.859 795.163L1711.19 511.41L1715.6 513.156L997.269 796.908Z" fill="#42E8E0"/>
<path d="M1009.93 801.908L1005.52 800.162L1723.85 516.41L1728.26 518.155L1009.93 801.908Z" fill="#42E8E0"/>
</g>
<path d="M695.558 398.444C856.604 334.849 1117.62 334.849 1278.7 398.444C1355.68 428.851 1395.81 468.288 1399.21 508.113C1402.89 464.625 1362.73 420.662 1278.7 387.432C1117.65 323.837 856.635 323.837 695.558 387.432C611.523 420.641 571.395 464.603 575.08 508.113C578.45 468.288 618.609 428.851 695.558 398.444Z" fill="url(#paint8_linear_478_8536)"/>
<path d="M1885.84 0.237305H-4V970H1885.84V0.237305Z" fill="url(#paint9_radial_478_8536)"/>
<path style="mix-blend-mode:lighten" d="M1886 0.237305V970H-3.8418L608.247 293.343L1886 0.237305Z" fill="url(#paint10_radial_478_8536)"/>
<path opacity="0.1" d="M1874 1.03458L1776.67 39.4803L1679.31 1.03458L1681.27 0.237217C1678.89 0.467158 1676.47 0.467158 1674.09 0.237217L1676.1 1.03458L1578.81 39.4803L1481.48 1.03458L1483.46 0.237217C1482.9 0.0533274 1482.28 -0.0274412 1481.65 0.0027702C1481.03 0.0329816 1480.43 0.173144 1479.91 0.409619C1479.38 0.173223 1478.77 0.0332464 1478.14 0.00306314C1477.51 -0.0271201 1476.88 0.0534988 1476.31 0.237217L1478.3 1.03458L1380.97 39.4803L1283.61 1.03458L1285.6 0.237217C1285.03 0.0533274 1284.41 -0.0274412 1283.79 0.0027702C1283.16 0.0329816 1282.56 0.173144 1282.04 0.409619C1281.51 0.173223 1280.9 0.0332464 1280.28 0.00306314C1279.65 -0.0271201 1279.02 0.0534988 1278.45 0.237217L1280.46 1.03458L1183.11 39.4803L1085.78 1.03458L1087.76 0.237217C1087.2 0.0533274 1086.57 -0.0274412 1085.95 0.0027702C1085.33 0.0329816 1084.72 0.173144 1084.2 0.409619C1083.68 0.173223 1083.07 0.0332464 1082.44 0.00306314C1081.81 -0.0271201 1081.18 0.0534988 1080.61 0.237217L1082.6 1.03458L985.176 39.4803L887.912 1.03458L889.896 0.237217C887.535 0.467685 885.139 0.467685 882.778 0.237217L884.762 1.03458L787.404 39.4803L690.077 1.01303L692.061 0.237217C691.497 0.0533274 690.872 -0.0274412 690.248 0.0027702C689.625 0.0329816 689.023 0.173144 688.502 0.409619C687.975 0.173223 687.368 0.0332464 686.74 0.00306314C686.111 -0.0271201 685.481 0.0534988 684.911 0.237217L686.927 1.01303L589.569 39.4803L492.21 1.01303L494.195 0.237217C491.834 0.467685 489.437 0.467685 487.076 0.237217L489.061 1.01303L391.702 39.4803L294.375 1.01303L296.36 0.237217C295.795 0.0562063 295.174 -0.0248455 294.552 0.0015146C293.93 0.0278747 293.328 0.160801 292.8 0.388069C292.273 0.160801 291.671 0.0278747 291.049 0.0015146C290.427 -0.0248455 289.805 0.0562063 289.241 0.237217L291.226 1.01303L193.867 39.4803L96.5088 1.01303L98.4932 0.237217C97.929 0.0562063 97.3073 -0.0248455 96.6854 0.0015146C96.0635 0.0278747 95.4612 0.160801 94.934 0.388069C94.4068 0.160801 93.8045 0.0278747 93.1825 0.0015146C92.5606 -0.0248455 91.939 0.0562063 91.3748 0.237217L93.3591 1.01303L-3.8418 39.4156V40.7733L93.3591 79.1759L-3.8418 117.579V118.936L93.3591 157.339L-3.8418 195.72V197.078L93.3591 235.48L-3.8418 273.926V275.284L93.3591 313.686L-3.8418 352.046V353.382L93.3906 391.784L-3.8418 430.187V431.545L93.3906 470.034L-3.8418 508.35V509.708L93.3906 548.11L-3.8418 586.513V587.849L93.3906 626.252L-3.8418 664.654V666.012L93.3906 704.414L-3.8418 742.817V744.153L93.3906 782.513L-3.8418 820.98V822.316L93.3906 860.719L-3.8418 899.121V900.457L93.3906 938.882L14.5842 970C41.7349 961.38 68.6022 949.915 94.9655 939.507C121.36 949.915 148.228 961.38 175.347 970L96.6033 938.882L193.962 900.414L291.32 938.882L212.451 970C239.57 961.38 266.437 949.915 292.832 939.507C319.195 949.915 346.063 961.38 373.182 970L294.438 938.882L391.765 900.414L489.124 938.882L410.38 970C437.499 961.38 464.367 949.915 490.73 939.507C517.125 949.915 543.992 961.38 571.111 970L492.368 938.882L589.726 900.414L687.085 938.882L608.152 970C635.271 961.38 662.139 949.915 688.534 939.507C714.897 949.915 741.764 961.38 768.883 970L690.14 938.882L787.467 900.414L884.825 938.882L806.082 970C833.201 961.38 860.068 949.915 886.432 939.507C912.732 949.915 939.631 961.38 966.718 970L887.975 938.882L985.176 900.436L1082.82 938.882L1004.07 970C1031.19 961.38 1058.06 949.915 1084.46 939.507C1110.6 949.915 1137.47 961.38 1164.71 970L1085.97 938.882L1183.29 900.436C1215.78 913.237 1248.23 926.052 1280.65 938.882L1201.91 970C1229.03 961.38 1255.9 949.915 1282.26 939.507C1308.62 949.915 1335.49 961.38 1362.61 970L1283.87 938.882L1381.22 900.436L1478.58 938.882L1399.84 970C1426.93 961.38 1453.79 949.915 1480.19 939.507C1506.3 949.915 1533.23 961.38 1560.29 970L1481.54 938.882L1578.87 900.436L1676.23 938.882L1597.48 970C1624.6 961.38 1651.47 949.915 1677.83 939.507C1704.2 949.915 1731.07 961.38 1758.18 970L1679.44 938.882L1776.8 900.436L1874.16 938.882L1795.29 970C1822.38 961.38 1849.24 949.915 1875.64 939.507L1886 943.601V942.351L1877.21 938.882L1886 935.52V934.27L1875.64 938.364L1778.28 899.811L1875.61 861.365L1886 865.46V864.21L1877.21 860.74L1886 857.249V855.999L1875.61 860.094L1778.28 821.626L1875.61 783.181L1886 787.275V786.025L1877.18 782.513L1886 779.043V777.793L1875.61 781.888L1778.28 743.507L1875.61 705.039L1886 709.242V707.992L1877.18 704.501L1886 701.031V699.781L1875.61 703.876L1778.28 665.43L1875.61 626.984L1886 631.079V629.829L1877.18 626.359L1886 622.868V621.618L1875.61 625.734L1778.25 587.267C1810.73 574.466 1843.19 561.651 1875.61 548.821L1886 552.916V551.688L1877.18 548.196L1886 544.705V543.305L1875.61 547.399L1778.25 509.04L1875.61 470.572L1886 474.688V473.438L1877.18 470.034L1886 466.564V465.314L1875.61 469.43L1778.25 430.963L1875.61 392.452L1886 396.547V395.319L1877.18 391.828L1886 388.336V387.086L1875.61 391.203L1778.25 352.757L1875.61 314.29L1886 318.406V317.156L1877.18 313.665L1886 310.195V308.945L1875.61 313.04L1778.25 274.572L1875.61 236.127L1886 240.221V238.971L1877.18 235.502L1886 232.011V230.825L1875.61 234.941L1778.25 196.345L1875.61 157.964L1886 162.08V160.83L1877.18 157.339L1886 153.848V152.598L1875.61 156.714L1778.25 118.268L1875.61 79.8009L1886 83.917V82.6671L1877.18 79.1759L1886 75.6632V74.4133L1875.61 78.5079C1843.12 65.707 1810.67 52.8918 1778.25 40.0621C1810.69 27.2756 1843.14 14.4748 1875.61 1.65954L1886 5.75409V4.54727L1877.18 1.03458L1879.17 0.237217C1878.6 0.0533274 1877.98 -0.0274412 1877.35 0.0027702C1876.73 0.0329816 1876.13 0.173144 1875.61 0.409619C1875.08 0.173223 1874.47 0.0332464 1873.84 0.00306314C1873.22 -0.0271201 1872.59 0.0534988 1872.02 0.237217L1874 1.03458ZM1629.08 20.8824L1677.74 1.65954L1775.1 40.1053L1677.74 78.551L1580.48 40.1053L1629.08 20.8824ZM638.264 450.638L686.927 470.034L589.569 508.415L492.242 470.034L589.569 431.588L638.264 450.638ZM591.018 430.79L688.502 392.452L785.86 430.92L688.502 469.365L591.018 430.79ZM639.713 489.709L688.376 470.486L785.734 508.932L688.376 547.399L591.144 509.018L639.713 489.709ZM738.646 489.084L690.077 470.034L787.435 431.588L884.794 470.034L787.435 508.501L738.646 489.084ZM788.884 430.898C821.326 418.069 853.779 405.253 886.243 392.452L983.569 430.898L886.243 469.344C853.842 456.529 821.431 443.706 789.01 430.877L788.884 430.898ZM837.548 489.817L886.243 470.594L983.569 509.061L886.243 547.507L788.884 509.04L837.548 489.817ZM936.481 489.192L887.943 470.034L985.176 431.502L1082.63 470.034L985.176 508.415L936.481 489.192ZM986.719 431.006L1084.2 392.452L1181.56 430.898L1084.2 469.344L986.719 431.006ZM1035.57 489.795L1084.24 470.572L1181.59 509.04L1084.24 547.485C1051.79 534.641 1019.33 521.826 986.845 509.04L1035.57 489.795ZM1134.47 489.17L1085.78 470.034L1183.14 431.588L1280.5 470.034L1183.14 508.501L1134.47 489.17ZM1233.41 489.795L1282.1 470.572L1379.43 509.04L1282.1 547.485L1184.71 509.04L1233.41 489.795ZM1233.41 450.099L1184.74 430.877L1282.04 392.452C1314.52 405.253 1346.98 418.069 1379.4 430.898L1282.07 469.344L1233.41 450.099ZM1233.41 371.958L1184.74 352.714L1282.07 314.268L1379.43 352.714L1282.07 391.181L1233.41 371.958ZM1231.83 372.583L1280.5 391.806L1183.17 430.252L1085.78 391.806L1183.14 353.339L1231.83 372.583ZM1132.9 371.958L1084.24 391.181L986.877 352.714L1084.24 314.268C1116.68 327.083 1149.13 339.898 1181.59 352.714L1132.9 371.958ZM1034 372.562L1082.66 391.806L985.176 430.252L887.849 391.806L985.176 353.339L1034 372.562ZM935.063 371.958L886.4 391.181L789.042 352.714L886.369 314.268L983.727 352.714L935.063 371.958ZM836.13 372.562L884.794 391.806L787.467 430.252L690.077 391.806L787.435 353.339L836.13 372.562ZM737.197 371.937L688.534 391.181L591.144 352.714L688.502 314.268L785.86 352.714L737.197 371.937ZM638.295 372.562L686.959 391.806L589.569 430.252L492.242 391.784L589.569 353.339L638.295 372.562ZM539.362 371.937L490.667 391.181L393.309 352.714L490.667 314.268L588.025 352.714L539.362 371.937ZM539.362 411.654L588.025 430.877L490.667 469.322L393.309 430.877L490.667 392.452L539.362 411.654ZM539.362 489.795L588.025 509.018L490.667 547.485L393.309 509.018L490.667 470.572L539.362 489.795ZM539.362 567.958L588.025 587.181L490.667 625.627L393.309 587.181C425.751 574.366 458.204 561.55 490.667 548.735L539.362 567.958ZM540.937 567.333L492.273 548.11L589.6 509.643L686.959 548.11L589.632 586.556L540.937 567.333ZM639.87 567.958L688.534 548.735L785.892 587.181L688.534 625.648L591.207 587.181L639.87 567.958ZM738.803 567.333L690.108 548.11L787.467 509.643L884.825 548.11L787.467 586.556L738.803 567.333ZM837.705 567.958L886.4 548.735L983.727 587.181L886.4 625.648L789.042 587.181L837.705 567.958ZM936.638 567.333L887.975 548.11L985.176 509.643L1082.53 548.11L985.176 586.556L936.638 567.333ZM1035.57 567.958L1084.24 548.735L1181.59 587.181L1084.24 625.648L986.908 587.181L1035.57 567.958ZM1134.5 567.333L1085.81 548.11L1183.17 509.643L1280.53 548.11L1183.17 586.556L1134.5 567.333ZM1233.41 567.958L1282.1 548.735L1379.43 587.181L1282.1 625.648L1184.74 587.181L1233.41 567.958ZM1332.34 567.333L1283.68 548.11L1381 509.664C1413.47 522.465 1445.92 535.281 1478.36 548.11C1445.92 560.94 1413.47 573.755 1381 586.556L1332.34 567.333ZM1332.34 489.192L1283.65 470.034L1380.97 431.588L1478.33 470.034L1380.97 508.501L1332.34 489.192ZM1332.34 411.029L1283.68 391.806L1381 353.339L1478.36 391.806L1381 430.252L1332.34 411.029ZM1332.34 332.866L1283.65 313.643L1381 275.197L1478.36 313.643L1381 352.11L1332.34 332.866ZM1330.77 293.795L1282.07 313.018L1184.74 274.572L1282.07 236.105L1379.43 274.572L1330.77 293.795ZM1231.83 294.42L1280.5 313.643L1183.17 352.089C1150.68 339.288 1118.23 326.473 1085.81 313.643C1118.25 300.813 1150.7 287.998 1183.17 275.197L1231.83 294.42ZM1132.9 293.795L1084.24 313.018L986.845 274.572L1084.2 236.105L1181.53 274.572L1132.9 293.795ZM1034 294.42L1082.66 313.643L985.176 352.089L887.817 313.643L985.176 275.197L1034 294.42ZM935.063 293.795L886.369 313.018L789.042 274.572L886.369 236.105L983.727 274.572L935.063 293.795ZM836.13 294.42L884.794 313.643L787.467 352.089C754.982 339.288 722.53 326.473 690.108 313.643C722.551 300.813 755.003 287.998 787.467 275.197L836.13 294.42ZM737.197 293.795L688.534 313.018L591.144 274.572L688.502 236.105L785.86 274.572L737.197 293.795ZM638.295 294.42L686.959 313.643L589.569 352.089L492.242 313.643L589.569 275.197L638.295 294.42ZM539.362 293.795L490.667 313.018L393.34 274.572L490.667 236.105L587.994 274.572L539.362 293.795ZM440.429 294.42L489.092 313.643L391.765 352.089L294.375 313.643L391.734 275.176L440.429 294.42ZM440.429 372.562L489.092 391.784L391.765 430.252L294.375 391.784L391.734 353.339L440.429 372.562ZM440.271 450.638L489.092 470.034L391.734 508.393L294.375 470.034L391.734 431.588L440.271 450.638ZM440.271 528.801L488.966 548.024L391.608 586.47C359.165 573.64 326.713 560.825 294.249 548.024L391.608 509.557L440.271 528.801ZM440.271 606.943L488.966 626.165L391.608 664.633L294.375 626.252C326.839 613.451 359.291 600.635 391.734 587.806L440.271 606.943ZM441.846 646.013L490.667 626.877L588.025 665.344L490.667 703.789L393.309 665.344L441.846 646.013ZM540.779 645.41L492.116 626.165L589.474 587.72L686.801 626.165L589.474 664.633L540.779 645.41ZM639.713 646.035L688.376 626.79L785.734 665.258L688.376 703.703L591.049 665.258L639.713 646.035ZM738.646 645.41L689.951 626.165C722.435 613.364 754.888 600.549 787.309 587.72L884.668 626.165L787.309 664.633L738.646 645.41ZM837.548 646.035L886.243 626.79L983.601 665.258L886.243 703.703L788.884 665.258L837.548 646.035ZM936.481 645.41L887.817 626.165L985.176 587.806L1082.5 626.273L985.176 664.719L936.481 645.41ZM1035.41 646.035L1084.08 626.79L1181.44 665.258L1084.08 703.703L986.751 665.258L1035.41 646.035ZM1134.35 645.41L1085.65 626.187L1183.01 587.72L1280.37 626.187C1247.88 638.988 1215.43 651.803 1183.01 664.633L1134.35 645.41ZM1233.25 646.035L1281.94 626.79L1379.3 665.258L1281.94 703.703L1184.59 665.258L1233.25 646.035ZM1332.18 645.41L1283.52 626.187L1380.85 587.72L1478.2 626.187L1380.88 664.633L1332.18 645.41ZM1431.12 646.035L1479.78 626.812L1577.33 665.344L1479.97 703.789L1382.64 665.344L1431.12 646.035ZM1431.12 606.318L1382.45 587.095L1479.78 548.649L1577.33 587.181L1479.97 625.648L1431.12 606.318ZM1431.12 528.176L1382.42 508.953L1479.78 470.486L1577.33 509.04L1479.97 547.485L1431.12 528.176ZM1431.12 450.013L1382.42 430.79L1479.91 392.452L1577.33 430.877L1479.97 469.322L1431.12 450.013ZM1431.12 371.872L1382.42 352.628L1479.78 314.182C1512.22 326.997 1544.67 339.812 1577.14 352.628L1479.78 391.095L1431.12 371.872ZM1431.12 293.709L1382.42 274.486L1479.78 236.019L1577.33 274.572L1480 313.018L1431.12 293.709ZM1431.12 215.546L1382.55 196.345L1479.91 157.899L1577.33 196.345L1480 234.812L1431.12 215.546ZM1429.54 216.171L1478.24 235.416L1380.97 273.926L1283.61 235.459C1316.1 222.658 1348.55 209.842 1380.97 197.013L1429.54 216.171ZM1330.64 215.546L1281.94 234.791L1184.71 196.345L1282.04 157.899L1379.4 196.345L1330.64 215.546ZM1231.71 216.171L1280.37 235.394L1183.14 273.926L1085.78 235.459L1183.11 197.013L1231.71 216.171ZM1132.87 215.74L1084.2 234.985L986.845 196.345L1084.2 157.899L1181.53 196.345L1132.87 215.74ZM1033.93 216.365L1082.63 235.588L985.176 273.926L887.817 235.459C920.302 222.658 952.754 209.842 985.176 197.013L1033.93 216.365ZM935.032 215.74L886.337 234.963L789.01 196.345L886.337 157.899C918.821 170.743 951.274 183.558 983.695 196.345L935.032 215.74ZM836.099 216.365L884.762 235.588L787.435 273.926L690.077 235.459L787.435 197.013L836.099 216.365ZM737.165 215.74L688.502 234.963L591.144 196.345L688.502 157.899L785.829 196.345L737.165 215.74ZM638.232 216.365L686.927 235.588L589.569 273.926L492.21 235.459L589.569 197.034L638.232 216.365ZM539.33 215.74L490.667 234.855L393.309 196.345L490.667 157.964C523.13 170.765 555.573 183.558 587.994 196.345L539.33 215.74ZM440.397 216.365L489.061 235.588L391.734 273.926L294.375 235.48L391.734 197.034L440.397 216.365ZM341.464 215.74L292.8 234.963L195.442 196.345L292.8 157.942L390.127 196.345L341.464 215.74ZM341.464 255.436L390.159 274.68C357.675 287.481 325.222 300.296 292.8 313.126L195.442 274.572L292.8 236.105L341.464 255.436ZM341.464 333.599L390.159 352.821L292.8 391.181L195.442 352.714L292.8 314.268L341.464 333.599ZM341.464 411.762L390.159 430.984L292.8 469.322L195.442 430.877L292.8 392.452L341.464 411.762ZM341.464 489.903L390.127 509.126L292.8 547.485L195.474 509.018L292.8 470.572L341.464 489.903ZM341.464 568.066L390.127 587.289C357.685 600.104 325.232 612.919 292.769 625.734L195.442 587.289L292.769 548.843L341.464 568.066ZM341.464 646.207L390.127 665.451L292.8 703.789L195.474 665.344L292.8 626.877L341.464 646.207ZM341.464 724.37L390.127 743.593L292.8 782.06L195.474 743.485L292.8 705.039L341.464 724.37ZM343.039 723.745L294.344 704.522L391.702 666.076L489.061 704.522L391.734 742.86L343.039 723.745ZM441.972 724.37L490.667 705.039L588.025 743.485L490.667 781.952L393.309 743.485L441.972 724.37ZM540.874 723.745L492.21 704.522C524.653 691.707 557.105 678.892 589.569 666.076L686.896 704.522L589.569 742.968L540.874 723.745ZM639.807 724.37L688.471 705.147L785.829 743.593L688.471 782.06L591.144 743.593L639.807 724.37ZM738.74 723.745L690.045 704.522L787.404 666.076L884.762 704.522L787.435 742.86L738.74 723.745ZM837.674 724.37L886.337 705.147C918.779 717.977 951.232 730.792 983.695 743.593L886.337 782.06L788.979 743.593L837.674 724.37ZM936.575 723.745L887.912 704.522C920.354 691.707 952.807 678.892 985.27 666.076L1082.6 704.522L985.176 742.86L936.575 723.745ZM1035.57 724.327L1084.24 705.104L1181.59 743.55L1084.24 782.017L986.908 743.55L1035.57 724.327ZM1134.5 723.702L1085.81 704.479L1183.17 666.033L1280.53 704.479L1183.17 742.946L1134.5 723.702ZM1233.44 724.327L1282.1 705.104C1314.54 717.934 1347 730.749 1379.46 743.55L1282.1 782.017L1184.74 743.55L1233.44 724.327ZM1332.34 723.702L1283.68 704.479L1381.03 666.033L1478.36 704.479L1381.03 742.946L1332.34 723.702ZM1431.27 724.327L1479.94 705.104L1577.33 743.507L1479.97 781.952L1382.64 743.485L1431.27 724.327ZM1530.21 723.702L1481.51 704.479L1578.87 666.033L1676.23 704.479L1578.87 742.946L1530.21 723.702ZM1530.21 645.561L1481.51 626.338L1578.87 587.87L1676.23 626.338C1643.76 639.139 1611.31 651.954 1578.87 664.783L1530.21 645.561ZM1530.21 567.398L1481.51 548.175L1578.87 509.729L1676.23 548.175L1578.87 586.621L1530.21 567.398ZM1530.21 489.256L1481.48 470.034L1578.84 431.588L1676.17 470.034L1578.84 508.501L1530.21 489.256ZM1530.21 411.093L1481.54 391.871L1578.9 353.403L1676.23 391.871L1578.9 430.316L1530.21 411.093ZM1530.21 332.931L1481.54 313.708L1578.9 275.262L1676.23 313.708L1578.9 352.175L1530.21 332.931ZM1530.21 254.789L1481.54 235.566L1578.87 197.099L1676.23 235.566L1578.84 273.926L1530.21 254.789ZM1530.21 176.626L1481.48 157.339L1578.81 118.872L1676.17 157.339C1643.72 170.154 1611.27 182.969 1578.81 195.785L1530.21 176.626ZM1528.63 137.556L1479.97 156.779L1382.55 118.268L1479.91 79.8009L1577.33 118.268L1528.63 137.556ZM1429.64 138.159L1478.33 157.382L1380.97 195.785L1283.61 157.339L1380.97 118.872L1429.64 138.159ZM1330.73 137.534L1282.04 156.757L1184.68 118.247C1217.14 105.446 1249.6 92.6305 1282.04 79.8009L1379.4 118.268L1330.73 137.534ZM1231.8 138.159L1280.46 157.382L1183.11 195.785L1085.78 157.339L1183.11 118.872L1231.8 138.159ZM1132.87 137.534L1084.2 156.757L986.845 118.247L1084.2 79.8009L1181.53 118.247L1132.87 137.534ZM1033.93 138.159L1082.63 157.382L985.176 195.785L887.912 157.339L985.176 118.872L1033.93 138.159ZM935.032 137.534L886.337 156.757L789.01 118.29L886.337 79.844L983.695 118.29L935.032 137.534ZM836.099 138.159L884.762 157.382L787.435 195.828L690.077 157.339L787.404 118.872L836.099 138.159ZM737.165 137.534L688.502 156.757L591.144 118.247L688.502 79.8009L785.829 118.247L737.165 137.534ZM638.232 138.159L686.927 157.403C654.443 170.204 621.99 183.02 589.569 195.849C557.231 182.991 524.779 170.154 492.21 157.339L589.569 118.872L638.232 138.159ZM539.33 137.556L490.667 156.714L393.34 118.247L490.667 79.8009L587.994 118.247L539.33 137.556ZM440.271 138.159L488.935 157.403L391.608 195.849L294.375 157.339L391.702 118.872L440.271 138.159ZM341.338 137.534L292.8 156.714L195.442 118.247L292.8 79.8009L390.127 118.247L341.338 137.534ZM242.531 138.159L291.226 157.339C258.762 170.14 226.31 182.955 193.867 195.785C161.425 182.969 128.972 170.154 96.5088 157.339L193.867 118.872L242.531 138.159ZM242.531 216.322L291.226 235.545L193.867 273.926L96.5088 235.48L193.867 197.034L242.531 216.322ZM242.531 294.485L291.194 313.708L193.867 352.089L96.5403 313.643L193.867 275.176L242.531 294.485ZM242.531 372.626L291.194 391.849L193.867 430.252L96.5403 391.784L193.867 353.339L242.531 372.626ZM242.531 450.789L291.226 470.034C258.783 482.849 226.331 495.664 193.867 508.479L96.5403 470.034L193.867 431.588L242.531 450.789ZM242.531 528.93L291.194 548.175L193.867 586.621L96.5403 548.11L193.867 509.643L242.531 528.93ZM242.531 607.093L291.194 626.316L193.867 664.783L96.5403 626.252L193.899 587.806L242.531 607.093ZM242.531 685.256L291.194 704.479L193.899 742.86L96.5403 704.414C128.983 691.599 161.435 678.784 193.899 665.969L242.531 685.256ZM242.531 763.398L291.226 782.513L193.899 820.958L96.5403 782.513L193.899 744.067L242.531 763.398ZM244.106 802.49L292.8 783.245L390.127 821.713L292.832 860.094L195.474 821.648L244.106 802.49ZM343.039 801.865L294.407 782.513L391.734 744.045L489.092 782.513L391.734 820.958L343.039 801.865ZM441.972 802.49L490.667 783.181L588.025 821.648L490.667 860.094L393.309 821.648L441.972 802.49ZM541.063 801.908L492.242 782.513L589.6 744.045L686.927 782.513L589.6 820.958L541.063 801.908ZM639.996 802.533L688.659 783.31C721.144 796.111 753.597 808.926 786.018 821.756L688.534 860.094C656.049 847.293 623.596 834.478 591.175 821.648L639.996 802.533ZM738.929 801.908L690.108 782.513L787.435 744.045L884.794 782.513L787.435 820.958L738.929 801.908ZM837.863 802.533L886.526 783.31L983.884 821.756L886.369 860.094L789.01 821.648L837.863 802.533ZM936.764 801.908L887.943 782.513L985.176 744.11L1082.63 782.513L985.176 821.023L936.764 801.908ZM1035.7 802.533L1084.36 783.31C1116.82 796.111 1149.28 808.926 1181.72 821.756L1084.24 860.094L986.877 821.626L1035.7 802.533ZM1134.47 801.908L1085.78 782.513L1183.14 744.045L1280.5 782.513L1183.14 820.958L1134.47 801.908ZM1233.41 802.533L1282.07 783.31L1379.43 821.756L1282.07 860.094L1184.71 821.626L1233.41 802.533ZM1332.31 801.908L1283.65 782.513L1381 744.045L1478.33 782.513L1381 820.958L1332.31 801.908ZM1431.24 802.533L1479.91 783.31L1577.33 821.648L1479.94 860.094L1382.58 821.626L1431.24 802.533ZM1530.08 801.908L1481.48 782.513L1578.84 744.045L1676.2 782.513L1578.84 820.958L1530.08 801.908ZM1629.01 802.533L1677.68 783.31L1775.04 821.756L1677.77 860.094L1580.48 821.648L1629.01 802.533ZM1629.01 762.837L1580.48 743.507L1677.83 705.039L1775.13 743.507C1742.67 756.308 1710.21 769.123 1677.77 781.952L1629.01 762.837ZM1629.01 684.674L1580.48 665.344L1677.83 626.898L1775.16 665.344L1677.83 703.789L1629.01 684.674ZM1629.01 606.533L1580.48 587.181L1677.83 548.735L1775.16 587.181L1677.83 625.648L1629.01 606.533ZM1629.01 528.37L1580.48 509.04L1677.83 470.572L1775.16 509.04L1677.83 547.485L1629.01 528.37ZM1629.01 450.207L1580.48 430.877L1677.74 392.452L1775.1 430.898L1677.77 469.344L1629.01 450.207ZM1629.01 372.066L1580.48 352.714L1677.8 314.268L1775.16 352.735L1677.8 391.181L1629.01 372.066ZM1629.01 293.903L1580.48 274.572L1677.8 236.127C1710.29 248.928 1742.74 261.743 1775.16 274.572L1677.8 313.018L1629.01 293.903ZM1629.01 215.74L1580.48 196.345L1677.8 157.899L1775.1 196.345L1677.74 234.812L1629.01 215.74ZM1629.01 137.599L1580.48 118.268L1677.83 79.8009L1775.19 118.268L1677.74 156.714L1629.01 137.599ZM1627.44 60.0177L1676.1 79.2406L1578.81 117.643L1481.48 79.1759L1578.81 40.7302L1627.44 60.0177ZM1431.21 20.8824L1479.91 1.65954L1577.33 40.1053L1480 78.551C1447.54 65.7501 1415.08 52.9349 1382.64 40.1053L1431.21 20.8824ZM1429.64 59.9531L1478.33 79.1759L1380.97 117.643L1283.61 79.1759L1380.97 40.7302L1429.64 59.9531ZM1233.38 20.8824L1282.04 1.65954L1379.4 40.1053L1282.04 78.551L1184.68 40.1053L1233.38 20.8824ZM1231.8 59.9531L1280.46 79.1759L1183.11 117.643L1085.78 79.1759L1183.11 40.7302L1231.8 59.9531ZM1035.57 20.8824L1084.2 1.63799L1181.53 40.1053L1084.2 78.551L986.845 40.1053L1035.57 20.8824ZM1034 59.9531L1082.69 79.1759L985.176 117.643L887.912 79.1759L985.176 40.7302L1034 59.9531ZM837.674 20.8824L886.337 1.63799L983.695 40.1053L886.337 78.551L788.979 40.1053L837.674 20.8824ZM836.099 59.9531L884.762 79.1759C852.32 91.9912 819.867 104.806 787.404 117.622L690.077 79.1759L787.404 40.7302L836.099 59.9531ZM639.807 20.8824L688.502 1.63799L785.829 40.1053L688.502 78.551L591.144 40.1053L639.807 20.8824ZM638.232 59.9531L686.927 79.1759L589.569 117.622L492.21 79.1759L589.569 40.7302L638.232 59.9531ZM441.972 20.8824L490.667 1.63799L587.994 40.1053L490.667 78.551L393.277 40.1053L441.972 20.8824ZM440.271 59.9531L488.935 79.1759C456.492 91.9912 424.082 104.806 391.702 117.622L294.375 79.1759L391.702 40.7302L440.271 59.9531ZM244.106 20.8608L292.8 1.63799L390.127 40.1053L292.8 78.551L195.442 40.1053L244.106 20.8608ZM242.531 59.9531L291.226 79.1759L193.867 117.622L96.5088 79.1759L193.867 40.7302L242.531 59.9531ZM46.2705 59.3281L-2.42441 40.1053L94.934 1.63799L192.292 40.1053L94.934 78.551L46.2705 59.3281ZM46.2705 137.469L-2.39292 118.247L94.934 79.8009L192.292 118.247L94.934 156.714L46.2705 137.469ZM46.2705 215.632L-2.39292 196.345L94.934 157.878L192.292 196.345L94.934 234.855L46.2705 215.632ZM46.2705 293.795L-2.39292 274.551L94.934 236.105L192.292 274.572L94.934 313.018L46.2705 293.795ZM46.2705 371.937L-2.39292 352.714L94.934 314.268C127.418 327.069 159.871 339.884 192.292 352.714L94.9655 391.159L46.2705 371.937ZM46.2705 450.099L-2.39292 430.877L94.9655 392.452L192.292 430.92L94.9655 469.365L46.2705 450.099ZM46.2705 528.241L-2.39292 509.018L94.9655 470.572L192.292 509.018L94.9655 547.485L46.2705 528.241ZM46.2705 606.404L-2.39292 587.181L94.9655 548.714L192.292 587.181L94.9655 625.627L46.2705 606.404ZM46.2705 684.567L-2.39292 665.344L94.9655 626.877L192.324 665.344C159.84 678.145 127.387 690.96 94.9655 703.789L46.2705 684.567ZM46.2705 762.708L-2.39292 743.485L94.9655 705.039L192.324 743.485L94.9655 781.952L46.2705 762.708ZM46.2705 840.871L-2.39292 821.648L94.9655 783.181L192.324 821.648L94.9655 860.094L46.2705 840.871ZM143.629 919.034L94.934 938.257L-2.36142 899.789L94.9655 861.344L192.324 899.789L143.629 919.034ZM145.172 879.942L96.5088 860.719L193.867 822.273L291.226 860.719L193.899 899.164L145.172 879.942ZM341.464 919.034L292.8 938.257L195.474 899.789L292.832 861.344L390.159 899.789L341.464 919.034ZM343.039 879.942L294.375 860.719L391.702 822.273L489.061 860.719L391.702 899.186L343.039 879.942ZM539.33 919.034L490.667 938.257L393.309 899.789C425.793 886.988 458.246 874.173 490.667 861.344L588.025 899.789L539.33 919.034ZM540.874 879.942L492.21 860.719L589.569 822.273L686.927 860.719L589.569 899.186L540.874 879.942ZM737.165 919.034L688.502 938.257L591.144 899.789L688.502 861.344L785.829 899.811L737.165 919.034ZM738.74 879.942L690.077 860.719L787.404 822.273L884.762 860.719L787.404 899.186L738.74 879.942ZM935 919.034L886.337 938.257C853.895 925.441 821.442 912.626 788.979 899.811L886.337 861.344L983.695 899.811L935 919.034ZM936.575 879.963L887.912 860.719L985.176 822.273L1082.5 860.719L985.176 899.186L936.575 879.963ZM1132.87 919.034L1084.2 938.257L986.845 899.811L1084.2 861.344L1181.53 899.811L1132.87 919.034ZM1134.44 879.963L1085.97 860.719L1183.29 822.273L1280.65 860.719L1183.29 899.186L1134.44 879.963ZM1330.7 919.034L1282.04 938.257L1184.68 899.811L1282.04 861.344L1379.4 899.811L1330.7 919.034ZM1332.28 879.963L1283.61 860.719L1380.97 822.273L1478.3 860.74L1380.97 899.186L1332.28 879.963ZM1528.57 919.034L1479.91 938.257L1382.55 899.811L1479.91 861.344L1577.33 899.811L1528.57 919.034ZM1530.14 879.963L1481.48 860.74L1578.81 822.273L1676.17 860.74L1578.81 899.186L1530.14 879.963ZM1726.4 919.034L1677.74 938.257L1580.48 899.811L1677.83 861.344L1775.19 899.811L1726.4 919.034ZM1825.34 841.453L1874 860.697L1776.67 899.143L1679.35 860.74L1776.7 822.273L1825.34 841.453ZM1825.34 763.311L1874.03 782.513L1776.7 820.958C1744.24 808.258 1711.79 795.443 1679.35 782.513C1711.79 769.697 1744.24 756.882 1776.7 744.067L1825.34 763.311ZM1825.34 685.148L1874 704.371L1776.67 742.839L1679.31 704.371L1776.64 665.926L1825.34 685.148ZM1825.34 606.986L1874 626.23L1776.64 664.676L1679.31 626.23L1776.64 587.763L1825.34 606.986ZM1825.34 528.844L1874 548.067C1841.56 560.897 1809.11 573.712 1776.64 586.513L1679.31 548.067L1776.64 509.621L1825.34 528.844ZM1825.34 450.681L1874.03 470.034L1776.67 508.501L1679.35 470.034L1776.67 431.588L1825.34 450.681ZM1825.34 372.54L1874 391.763L1776.64 430.209L1679.31 391.763L1776.64 353.296L1825.34 372.54ZM1825.34 294.377L1874.03 313.6L1776.67 352.067L1679.31 313.6L1776.67 275.154L1825.34 294.377ZM1825.34 216.214L1874.03 235.459C1841.55 248.259 1809.09 261.075 1776.67 273.904C1744.23 261.089 1711.78 248.274 1679.31 235.459L1776.67 196.991L1825.34 216.214ZM1825.34 138.073L1874.03 157.339L1776.67 195.785L1679.31 157.339L1776.67 118.893L1825.34 138.073ZM1825.34 59.91L1874.03 79.1328L1776.67 117.643L1679.31 79.1759L1776.67 40.7302L1825.34 59.91Z" fill="url(#paint11_radial_478_8536)"/>
<defs>
<linearGradient id="paint0_linear_478_8536" x1="510.02" y1="411.95" x2="787.707" y2="1043.47" gradientUnits="userSpaceOnUse">
<stop stop-color="#42E8E0"/>
<stop offset="0.02" stop-color="#40DDDA"/>
<stop offset="0.09" stop-color="#3AAEC0"/>
<stop offset="0.17" stop-color="#3484A9"/>
<stop offset="0.26" stop-color="#2F6195"/>
<stop offset="0.35" stop-color="#2B4486"/>
<stop offset="0.44" stop-color="#282E79"/>
<stop offset="0.54" stop-color="#261E71"/>
<stop offset="0.66" stop-color="#24156C"/>
<stop offset="0.82" stop-color="#24126A"/>
</linearGradient>
<linearGradient id="paint1_linear_478_8536" x1="451.263" y1="558.993" x2="1373.19" y2="558.993" gradientUnits="userSpaceOnUse">
<stop stop-color="#42E8E0"/>
<stop offset="0.15" stop-color="#43E3E0"/>
<stop offset="0.33" stop-color="#45D5DF"/>
<stop offset="0.52" stop-color="#49BDDD"/>
<stop offset="0.72" stop-color="#4E9CDB"/>
<stop offset="0.93" stop-color="#5472D8"/>
<stop offset="1" stop-color="#5761D7"/>
</linearGradient>
<linearGradient id="paint2_linear_478_8536" x1="451.263" y1="558.993" x2="1373.19" y2="558.993" gradientUnits="userSpaceOnUse">
<stop stop-color="#42E8E0"/>
<stop offset="0.15" stop-color="#43E3E0"/>
<stop offset="0.33" stop-color="#45D5DF"/>
<stop offset="0.52" stop-color="#49BDDD"/>
<stop offset="0.72" stop-color="#4E9CDB"/>
<stop offset="0.93" stop-color="#5472D8"/>
<stop offset="1" stop-color="#5761D7"/>
</linearGradient>
<linearGradient id="paint3_linear_478_8536" x1="451.263" y1="558.993" x2="1373.19" y2="558.993" gradientUnits="userSpaceOnUse">
<stop stop-color="#42E8E0"/>
<stop offset="0.15" stop-color="#43E3E0"/>
<stop offset="0.33" stop-color="#45D5DF"/>
<stop offset="0.52" stop-color="#49BDDD"/>
<stop offset="0.72" stop-color="#4E9CDB"/>
<stop offset="0.93" stop-color="#5472D8"/>
<stop offset="1" stop-color="#5761D7"/>
</linearGradient>
<linearGradient id="paint4_linear_478_8536" x1="451.263" y1="543.24" x2="1373.19" y2="543.24" gradientUnits="userSpaceOnUse">
<stop stop-color="#42E8E0"/>
<stop offset="0.02" stop-color="#40DDDA"/>
<stop offset="0.09" stop-color="#3AAEC0"/>
<stop offset="0.17" stop-color="#3484A9"/>
<stop offset="0.26" stop-color="#2F6195"/>
<stop offset="0.35" stop-color="#2B4486"/>
<stop offset="0.44" stop-color="#282E79"/>
<stop offset="0.54" stop-color="#261E71"/>
<stop offset="0.66" stop-color="#24156C"/>
<stop offset="0.82" stop-color="#24126A"/>
</linearGradient>
<linearGradient id="paint5_linear_478_8536" x1="524.936" y1="559.92" x2="1449.51" y2="559.92" gradientUnits="userSpaceOnUse">
<stop stop-color="#42E8E0"/>
<stop offset="0.15" stop-color="#43E3E0"/>
<stop offset="0.33" stop-color="#45D5DF"/>
<stop offset="0.52" stop-color="#49BDDD"/>
<stop offset="0.72" stop-color="#4E9CDB"/>
<stop offset="0.93" stop-color="#5472D8"/>
<stop offset="1" stop-color="#5761D7"/>
</linearGradient>
<linearGradient id="paint6_linear_478_8536" x1="509.59" y1="335.461" x2="787.277" y2="966.981" gradientUnits="userSpaceOnUse">
<stop stop-color="#42E8E0"/>
<stop offset="0.02" stop-color="#40DDDA"/>
<stop offset="0.09" stop-color="#3AAEC0"/>
<stop offset="0.17" stop-color="#3484A9"/>
<stop offset="0.26" stop-color="#2F6195"/>
<stop offset="0.35" stop-color="#2B4486"/>
<stop offset="0.44" stop-color="#282E79"/>
<stop offset="0.54" stop-color="#261E71"/>
<stop offset="0.66" stop-color="#24156C"/>
<stop offset="0.82" stop-color="#24126A"/>
</linearGradient>
<linearGradient id="paint7_linear_478_8536" x1="914.305" y1="253.905" x2="1024.39" y2="1058.03" gradientUnits="userSpaceOnUse">
<stop stop-color="#42E8E0"/>
<stop offset="0.02" stop-color="#40DDDA"/>
<stop offset="0.09" stop-color="#3AAEC0"/>
<stop offset="0.17" stop-color="#3484A9"/>
<stop offset="0.26" stop-color="#2F6195"/>
<stop offset="0.35" stop-color="#2B4486"/>
<stop offset="0.44" stop-color="#282E79"/>
<stop offset="0.54" stop-color="#261E71"/>
<stop offset="0.66" stop-color="#24156C"/>
<stop offset="0.82" stop-color="#24126A"/>
</linearGradient>
<linearGradient id="paint8_linear_478_8536" x1="574.828" y1="423.959" x2="1399.43" y2="423.959" gradientUnits="userSpaceOnUse">
<stop stop-color="#2B237C"/>
<stop offset="1" stop-color="#180D5B"/>
</linearGradient>
<radialGradient id="paint9_radial_478_8536" cx="0" cy="0" r="1" gradientUnits="userSpaceOnUse" gradientTransform="translate(-166.148 -13.7488) scale(1855.64 1269.61)">
<stop offset="0.0241477" stop-color="#4077B6"/>
<stop offset="0.49" stop-color="#2A3D82"/>
<stop offset="0.61" stop-color="#272575"/>
<stop offset="0.73" stop-color="#25176D"/>
<stop offset="0.82" stop-color="#24126A"/>
</radialGradient>
<radialGradient id="paint10_radial_478_8536" cx="0" cy="0" r="1" gradientUnits="userSpaceOnUse" gradientTransform="translate(2383.19 1178.97) scale(1858.35 1271.47)">
<stop stop-color="#451368"/>
<stop offset="0.06" stop-color="#401368"/>
<stop offset="0.31" stop-color="#301269"/>
<stop offset="0.6" stop-color="#27126A"/>
<stop offset="1" stop-color="#24126A"/>
</radialGradient>
<radialGradient id="paint11_radial_478_8536" cx="0" cy="0" r="1" gradientUnits="userSpaceOnUse" gradientTransform="translate(-6.9285 2.90947) scale(2491.88 1704.93)">
<stop stop-color="#42E8E0"/>
<stop offset="0.48" stop-color="#42E8E0"/>
<stop offset="0.93" stop-color="#42E8E0"/>
<stop offset="1" stop-color="#42E8E0"/>
</radialGradient>
</defs>
</svg>
